<svg width="78" height="67" viewBox="0 0 78 67" fill="none" xmlns="http://www.w3.org/2000/svg">
<g clip-path="url(#clip0_1_6454)">
<g clip-path="url(#clip1_1_6454)">
<path d="M15.5 18.4688C15.5 18.1621 15.6218 17.868 15.8387 17.6512C16.0555 17.4343 16.3496 17.3125 16.6562 17.3125H20.125C20.3829 17.3126 20.6334 17.3989 20.8366 17.5577C21.0399 17.7165 21.1841 17.9387 21.2466 18.1889L22.1831 21.9375H49.0312C49.201 21.9377 49.3687 21.9752 49.5223 22.0475C49.6759 22.1197 49.8118 22.2249 49.9202 22.3556C50.0285 22.4863 50.1068 22.6392 50.1494 22.8036C50.192 22.9679 50.1979 23.1396 50.1667 23.3065L46.6979 41.8065C46.6483 42.0715 46.5077 42.3108 46.3004 42.483C46.0931 42.6553 45.8321 42.7498 45.5625 42.75H24.75C24.4804 42.7498 24.2194 42.6553 24.0121 42.483C23.8048 42.3108 23.6642 42.0715 23.6146 41.8065L20.1481 23.3412L19.2231 19.625H16.6562C16.3496 19.625 16.0555 19.5032 15.8387 19.2863C15.6218 19.0695 15.5 18.7754 15.5 18.4688ZM22.6734 24.25L25.7097 40.4375H44.6028L47.6391 24.25H22.6734ZM27.0625 42.75C25.8359 42.75 24.6595 43.2373 23.7921 44.1046C22.9248 44.972 22.4375 46.1484 22.4375 47.375C22.4375 48.6016 22.9248 49.778 23.7921 50.6454C24.6595 51.5127 25.8359 52 27.0625 52C28.2891 52 29.4655 51.5127 30.3329 50.6454C31.2002 49.778 31.6875 48.6016 31.6875 47.375C31.6875 46.1484 31.2002 44.972 30.3329 44.1046C29.4655 43.2373 28.2891 42.75 27.0625 42.75ZM43.25 42.75C42.0234 42.75 40.847 43.2373 39.9796 44.1046C39.1123 44.972 38.625 46.1484 38.625 47.375C38.625 48.6016 39.1123 49.778 39.9796 50.6454C40.847 51.5127 42.0234 52 43.25 52C44.4766 52 45.653 51.5127 46.5204 50.6454C47.3877 49.778 47.875 48.6016 47.875 47.375C47.875 46.1484 47.3877 44.972 46.5204 44.1046C45.653 43.2373 44.4766 42.75 43.25 42.75ZM27.0625 45.0625C27.6758 45.0625 28.264 45.3061 28.6977 45.7398C29.1314 46.1735 29.375 46.7617 29.375 47.375C29.375 47.9883 29.1314 48.5765 28.6977 49.0102C28.264 49.4439 27.6758 49.6875 27.0625 49.6875C26.4492 49.6875 25.861 49.4439 25.4273 49.0102C24.9936 48.5765 24.75 47.9883 24.75 47.375C24.75 46.7617 24.9936 46.1735 25.4273 45.7398C25.861 45.3061 26.4492 45.0625 27.0625 45.0625ZM43.25 45.0625C43.8633 45.0625 44.4515 45.3061 44.8852 45.7398C45.3189 46.1735 45.5625 46.7617 45.5625 47.375C45.5625 47.9883 45.3189 48.5765 44.8852 49.0102C44.4515 49.4439 43.8633 49.6875 43.25 49.6875C42.6367 49.6875 42.0485 49.4439 41.6148 49.0102C41.1811 48.5765 40.9375 47.9883 40.9375 47.375C40.9375 46.7617 41.1811 46.1735 41.6148 45.7398C42.0485 45.3061 42.6367 45.0625 43.25 45.0625Z" fill="#23A6F0"/>
</g>
<path d="M58.0628 29.112H61.1108V37.5H59.7668V30.372H58.0628V29.112Z" fill="#23A6F0"/>
</g>
<defs>
<clipPath id="clip0_1_6454">
<rect width="77" height="67" fill="white" transform="translate(0.5)"/>
</clipPath>
<clipPath id="clip1_1_6454">
<rect width="37" height="37" fill="white" transform="translate(15.5 15)"/>
</clipPath>
</defs>
</svg>
