<svg width="310" height="75" viewBox="0 0 310 75" fill="none" xmlns="http://www.w3.org/2000/svg">
<g clip-path="url(#clip0_1_6443)">
<g clip-path="url(#clip1_1_6443)">
<path d="M28.5 37.5C30.2902 37.5 32.0071 36.7625 33.273 35.4497C34.5388 34.137 35.25 32.3565 35.25 30.5C35.25 28.6435 34.5388 26.863 33.273 25.5503C32.0071 24.2375 30.2902 23.5 28.5 23.5C26.7098 23.5 24.9929 24.2375 23.727 25.5503C22.4612 26.863 21.75 28.6435 21.75 30.5C21.75 32.3565 22.4612 34.137 23.727 35.4497C24.9929 36.7625 26.7098 37.5 28.5 37.5ZM33 30.5C33 31.7377 32.5259 32.9247 31.682 33.7998C30.8381 34.675 29.6935 35.1667 28.5 35.1667C27.3065 35.1667 26.1619 34.675 25.318 33.7998C24.4741 32.9247 24 31.7377 24 30.5C24 29.2623 24.4741 28.0753 25.318 27.2002C26.1619 26.325 27.3065 25.8333 28.5 25.8333C29.6935 25.8333 30.8381 26.325 31.682 27.2002C32.5259 28.0753 33 29.2623 33 30.5ZM42 49.1667C42 51.5 39.75 51.5 39.75 51.5H17.25C17.25 51.5 15 51.5 15 49.1667C15 46.8333 17.25 39.8333 28.5 39.8333C39.75 39.8333 42 46.8333 42 49.1667ZM39.75 49.1573C39.7477 48.5833 39.4035 46.8567 37.878 45.2747C36.411 43.7533 33.6502 42.1667 28.5 42.1667C23.3475 42.1667 20.589 43.7533 19.122 45.2747C17.5965 46.8567 17.2545 48.5833 17.25 49.1573H39.75Z" fill="#23A6F0"/>
</g>
<path d="M50.3885 48V27.03H53.9285V44.64H63.4985V48H50.3885ZM70.557 43.8C71.517 44.76 72.727 45.24 74.187 45.24C75.647 45.24 76.847 44.76 77.787 43.8C78.747 42.82 79.227 41.56 79.227 40.02C79.227 38.48 78.747 37.23 77.787 36.27C76.847 35.29 75.647 34.8 74.187 34.8C72.727 34.8 71.517 35.29 70.557 36.27C69.617 37.23 69.147 38.48 69.147 40.02C69.147 41.56 69.617 42.82 70.557 43.8ZM80.187 45.87C78.587 47.45 76.587 48.24 74.187 48.24C71.787 48.24 69.787 47.45 68.187 45.87C66.587 44.27 65.787 42.32 65.787 40.02C65.787 37.72 66.587 35.78 68.187 34.2C69.787 32.6 71.787 31.8 74.187 31.8C76.587 31.8 78.587 32.6 80.187 34.2C81.787 35.78 82.587 37.72 82.587 40.02C82.587 42.32 81.787 44.27 80.187 45.87ZM101.367 32.04V45.96C101.367 48.78 100.597 50.89 99.0573 52.29C97.5373 53.71 95.5773 54.42 93.1773 54.42C90.7773 54.42 88.6073 53.67 86.6673 52.17L88.2573 49.62C89.8173 50.8 91.3873 51.39 92.9673 51.39C94.5673 51.39 95.8273 50.98 96.7473 50.16C97.6873 49.34 98.1573 48.03 98.1573 46.23V44.19C97.6573 45.13 96.9373 45.88 95.9973 46.44C95.0773 47 94.0373 47.28 92.8773 47.28C90.7573 47.28 89.0173 46.54 87.6573 45.06C86.2973 43.58 85.6173 41.74 85.6173 39.54C85.6173 37.34 86.2973 35.5 87.6573 34.02C89.0173 32.54 90.7473 31.8 92.8473 31.8C94.9673 31.8 96.6873 32.67 98.0073 34.41V32.04H101.367ZM88.9173 39.42C88.9173 40.72 89.3173 41.85 90.1173 42.81C90.9373 43.75 92.0273 44.22 93.3873 44.22C94.7673 44.22 95.8773 43.76 96.7173 42.84C97.5773 41.92 98.0073 40.78 98.0073 39.42C98.0073 38.04 97.5773 36.88 96.7173 35.94C95.8573 34.98 94.7473 34.5 93.3873 34.5C92.0273 34.5 90.9373 34.99 90.1173 35.97C89.3173 36.95 88.9173 38.1 88.9173 39.42ZM109.796 48H106.436V32.04H109.796V48ZM106.646 28.86C106.226 28.44 106.016 27.94 106.016 27.36C106.016 26.78 106.226 26.28 106.646 25.86C107.066 25.44 107.566 25.23 108.146 25.23C108.726 25.23 109.226 25.44 109.646 25.86C110.066 26.28 110.276 26.78 110.276 27.36C110.276 27.94 110.066 28.44 109.646 28.86C109.226 29.28 108.726 29.49 108.146 29.49C107.566 29.49 107.066 29.28 106.646 28.86ZM118.229 39.36V48H114.869V32.04H118.229V34.95C118.769 33.97 119.509 33.2 120.449 32.64C121.409 32.08 122.439 31.8 123.539 31.8C125.339 31.8 126.789 32.35 127.889 33.45C129.009 34.55 129.569 36.14 129.569 38.22V48H126.209V39.24C126.209 36.3 124.989 34.83 122.549 34.83C121.389 34.83 120.379 35.22 119.519 36C118.659 36.76 118.229 37.88 118.229 39.36ZM154.296 23.67H157.296L144.306 51.51H141.306L154.296 23.67ZM186.355 33.84C186.355 37.3 184.845 39.48 181.825 40.38L187.315 48H182.815L177.805 40.95H173.155V48H169.615V27.03H177.415C180.615 27.03 182.905 27.57 184.285 28.65C185.665 29.73 186.355 31.46 186.355 33.84ZM177.565 37.74C179.565 37.74 180.925 37.43 181.645 36.81C182.365 36.19 182.725 35.2 182.725 33.84C182.725 32.46 182.355 31.52 181.615 31.02C180.875 30.5 179.555 30.24 177.655 30.24H173.155V37.74H177.565ZM206.012 41.49H193.502C193.582 42.65 194.112 43.59 195.092 44.31C196.072 45.01 197.192 45.36 198.452 45.36C200.452 45.36 201.972 44.73 203.012 43.47L204.932 45.57C203.212 47.35 200.972 48.24 198.212 48.24C195.972 48.24 194.062 47.5 192.482 46.02C190.922 44.52 190.142 42.52 190.142 40.02C190.142 37.5 190.942 35.5 192.542 34.02C194.142 32.54 196.022 31.8 198.182 31.8C200.362 31.8 202.212 32.46 203.732 33.78C205.252 35.08 206.012 36.88 206.012 39.18V41.49ZM193.502 38.85H202.652C202.652 37.51 202.232 36.48 201.392 35.76C200.552 35.04 199.512 34.68 198.272 34.68C197.052 34.68 195.952 35.06 194.972 35.82C193.992 36.56 193.502 37.57 193.502 38.85ZM224.667 32.04V45.96C224.667 48.78 223.897 50.89 222.357 52.29C220.837 53.71 218.877 54.42 216.477 54.42C214.077 54.42 211.907 53.67 209.967 52.17L211.557 49.62C213.117 50.8 214.687 51.39 216.267 51.39C217.867 51.39 219.127 50.98 220.047 50.16C220.987 49.34 221.457 48.03 221.457 46.23V44.19C220.957 45.13 220.237 45.88 219.297 46.44C218.377 47 217.337 47.28 216.177 47.28C214.057 47.28 212.317 46.54 210.957 45.06C209.597 43.58 208.917 41.74 208.917 39.54C208.917 37.34 209.597 35.5 210.957 34.02C212.317 32.54 214.047 31.8 216.147 31.8C218.267 31.8 219.987 32.67 221.307 34.41V32.04H224.667ZM212.217 39.42C212.217 40.72 212.617 41.85 213.417 42.81C214.237 43.75 215.327 44.22 216.687 44.22C218.067 44.22 219.177 43.76 220.017 42.84C220.877 41.92 221.307 40.78 221.307 39.42C221.307 38.04 220.877 36.88 220.017 35.94C219.157 34.98 218.047 34.5 216.687 34.5C215.327 34.5 214.237 34.99 213.417 35.97C212.617 36.95 212.217 38.1 212.217 39.42ZM233.095 48H229.735V32.04H233.095V48ZM229.945 28.86C229.525 28.44 229.315 27.94 229.315 27.36C229.315 26.78 229.525 26.28 229.945 25.86C230.365 25.44 230.865 25.23 231.445 25.23C232.025 25.23 232.525 25.44 232.945 25.86C233.365 26.28 233.575 26.78 233.575 27.36C233.575 27.94 233.365 28.44 232.945 28.86C232.525 29.28 232.025 29.49 231.445 29.49C230.865 29.49 230.365 29.28 229.945 28.86ZM249.538 43.23C249.538 44.75 248.988 45.97 247.888 46.89C246.788 47.79 245.378 48.24 243.658 48.24C242.498 48.24 241.288 48.03 240.028 47.61C238.788 47.19 237.688 46.6 236.728 45.84L238.348 43.23C240.208 44.63 242.008 45.33 243.748 45.33C244.508 45.33 245.108 45.16 245.548 44.82C245.988 44.46 246.208 44.01 246.208 43.47C246.208 42.67 245.148 41.95 243.028 41.31C242.868 41.25 242.748 41.21 242.668 41.19C239.348 40.29 237.688 38.79 237.688 36.69C237.688 35.21 238.258 34.03 239.398 33.15C240.558 32.25 242.058 31.8 243.898 31.8C245.738 31.8 247.478 32.34 249.118 33.42L247.858 35.91C246.558 35.05 245.148 34.62 243.628 34.62C242.828 34.62 242.178 34.77 241.678 35.07C241.178 35.35 240.928 35.78 240.928 36.36C240.928 36.88 241.188 37.26 241.708 37.5C242.068 37.68 242.568 37.85 243.208 38.01C243.868 38.17 244.448 38.33 244.948 38.49C245.448 38.65 245.928 38.83 246.388 39.03C246.868 39.23 247.378 39.51 247.918 39.87C248.998 40.59 249.538 41.71 249.538 43.23ZM257.684 34.74V42.84C257.684 43.6 257.884 44.21 258.284 44.67C258.684 45.11 259.244 45.33 259.964 45.33C260.684 45.33 261.374 44.98 262.034 44.28L263.414 46.65C262.234 47.71 260.924 48.24 259.484 48.24C258.064 48.24 256.844 47.75 255.824 46.77C254.824 45.77 254.324 44.43 254.324 42.75V34.74H252.314V32.04H254.324V27.03H257.684V32.04H261.884V34.74H257.684ZM281.133 41.49H268.623C268.703 42.65 269.233 43.59 270.213 44.31C271.193 45.01 272.313 45.36 273.573 45.36C275.573 45.36 277.093 44.73 278.133 43.47L280.053 45.57C278.333 47.35 276.093 48.24 273.333 48.24C271.093 48.24 269.183 47.5 267.603 46.02C266.043 44.52 265.263 42.52 265.263 40.02C265.263 37.5 266.063 35.5 267.663 34.02C269.263 32.54 271.143 31.8 273.303 31.8C275.483 31.8 277.333 32.46 278.853 33.78C280.373 35.08 281.133 36.88 281.133 39.18V41.49ZM268.623 38.85H277.773C277.773 37.51 277.353 36.48 276.513 35.76C275.673 35.04 274.633 34.68 273.393 34.68C272.173 34.68 271.073 35.06 270.093 35.82C269.113 36.56 268.623 37.57 268.623 38.85ZM293.398 35.19C291.738 35.19 290.488 35.73 289.648 36.81C288.808 37.89 288.388 39.34 288.388 41.16V48H285.028V32.04H288.388V35.25C288.928 34.25 289.658 33.43 290.578 32.79C291.518 32.15 292.508 31.82 293.548 31.8L293.578 35.19C293.518 35.19 293.458 35.19 293.398 35.19Z" fill="#23A6F0"/>
</g>
<defs>
<clipPath id="clip0_1_6443">
<rect width="310" height="75" fill="white"/>
</clipPath>
<clipPath id="clip1_1_6443">
<rect width="27" height="28" fill="white" transform="translate(15 23.5)"/>
</clipPath>
</defs>
</svg>
