<svg width="64" height="64" viewBox="0 0 64 64" fill="none" xmlns="http://www.w3.org/2000/svg">
<g clip-path="url(#clip0_1_6449)">
<g clip-path="url(#clip1_1_6449)">
<path d="M39.9527 36.9806C42.0103 34.1728 42.9318 30.6917 42.533 27.2337C42.1342 23.7756 40.4445 20.5957 37.8018 18.3301C35.1591 16.0644 31.7585 14.8801 28.2802 15.0142C24.8019 15.1482 21.5024 16.5906 19.042 19.0529C16.5815 21.5152 15.1414 24.8157 15.0099 28.2942C14.8783 31.7727 16.065 35.1726 18.3325 37.8136C20.6 40.4547 23.7811 42.1422 27.2394 42.5386C30.6976 42.9349 34.178 42.0108 36.9842 39.9512H36.9821C37.0458 40.0362 37.1138 40.117 37.1903 40.1956L45.3713 48.3767C45.7697 48.7754 46.3102 48.9996 46.8739 48.9998C47.4376 49 47.9782 48.7762 48.377 48.3778C48.7757 47.9793 48.9998 47.4388 49 46.8751C49.0002 46.3114 48.7765 45.7708 48.378 45.372L40.1971 37.1909C40.1211 37.114 40.0394 37.043 39.9527 36.9784V36.9806ZM40.5009 28.8122C40.5009 30.347 40.1987 31.8668 39.6113 33.2847C39.024 34.7027 38.1631 35.9911 37.0779 37.0764C35.9926 38.1616 34.7043 39.0225 33.2863 39.6098C31.8684 40.1972 30.3487 40.4995 28.8139 40.4995C27.2791 40.4995 25.7594 40.1972 24.3414 39.6098C22.9235 39.0225 21.6351 38.1616 20.5499 37.0764C19.4646 35.9911 18.6038 34.7027 18.0165 33.2847C17.4291 31.8668 17.1268 30.347 17.1268 28.8122C17.1268 25.7126 18.3581 22.7398 20.5499 20.5481C22.7416 18.3563 25.7143 17.1249 28.8139 17.1249C31.9135 17.1249 34.8861 18.3563 37.0779 20.5481C39.2696 22.7398 40.5009 25.7126 40.5009 28.8122Z" fill="#23A6F0"/>
</g>
</g>
<defs>
<clipPath id="clip0_1_6449">
<rect width="64" height="64" fill="white"/>
</clipPath>
<clipPath id="clip1_1_6449">
<rect width="34" height="34" fill="white" transform="translate(15 15)"/>
</clipPath>
</defs>
</svg>
