<svg width="70" height="59" viewBox="0 0 70 59" fill="none" xmlns="http://www.w3.org/2000/svg">
<g clip-path="url(#clip0_1_6459)">
<g clip-path="url(#clip1_1_6459)">
<g clip-path="url(#clip2_1_6459)">
<path d="M29.9998 19.9808L28.7002 18.645C25.6498 15.5094 20.0564 16.5915 18.0373 20.5337C17.0894 22.3878 16.8755 25.0649 18.6064 28.4815C20.2739 31.7712 23.7431 35.7115 29.9998 40.0035C36.2566 35.7115 39.7239 31.7712 41.3932 28.4815C43.1241 25.0631 42.9121 22.3878 41.9623 20.5337C39.9432 16.5915 34.3498 15.5076 31.2994 18.6432L29.9998 19.9808ZM29.9998 42.1876C2.20875 23.8233 21.443 9.49009 29.6808 17.0718C29.7896 17.1715 29.8965 17.2748 29.9998 17.3817C30.1021 17.2749 30.2085 17.1721 30.3188 17.0736C38.5548 9.48646 57.7909 23.8215 29.9998 42.1876Z" fill="#23A6F0"/>
</g>
<path d="M50.0628 25.112H53.1108V33.5H51.7668V26.372H50.0628V25.112Z" fill="#23A6F0"/>
</g>
</g>
<defs>
<clipPath id="clip0_1_6459">
<rect width="69" height="59" fill="white" transform="translate(0.5)"/>
</clipPath>
<clipPath id="clip1_1_6459">
<rect width="69" height="59" fill="white" transform="translate(0.5)"/>
</clipPath>
<clipPath id="clip2_1_6459">
<rect width="29" height="29" fill="white" transform="translate(15.5 15)"/>
</clipPath>
</defs>
</svg>
